<svg xmlns="http://www.w3.org/2000/svg" viewBox="0 0 324.06 282.84"><defs><style>.cls-1{fill:#efeae6;}.cls-2{fill:#e8e3e2;}.cls-3{fill:#d2d1cd;}.cls-4{fill:#dcd7cd;}.cls-5{fill:#eee9e4;}.cls-6{fill:#c0b399;}.cls-7{fill:#ffcf4a;}.cls-8{fill:#fab416;}.cls-9{fill:#fff;}</style></defs><title>Asset 15</title><g id="Layer_2" data-name="Layer 2"><g id="Layer_1-2" data-name="Layer 1"><rect class="cls-1" x="52.48" y="22.81" width="218.65" height="75.5"/><rect class="cls-2" x="52.48" y="22.81" width="218.65" height="58.99"/><polygon class="cls-3" points="161.8 196.32 161.8 196.56 69 197.5 69 223.07 91.02 228.57 107.53 244.3 119.33 239.58 139.78 246.66 161.8 282.84 161.8 282.6 183.82 246.42 204.27 239.34 216.07 244.06 232.59 228.33 254.61 222.83 254.61 197.27 161.8 196.32"/><rect class="cls-2" x="52.48" y="56.63" width="16.52" height="176.16" rx="5.79" ry="5.79"/><rect class="cls-2" x="153.94" y="56.63" width="16.52" height="226.04" rx="5.79" ry="5.79"/><rect class="cls-2" x="102.82" y="56.63" width="16.52" height="191.2" rx="5.79" ry="5.79"/><rect class="cls-2" x="254.61" y="56.63" width="16.52" height="176.16" rx="5.79" ry="5.79"/><rect class="cls-3" x="69" y="67.64" width="33.82" height="144.56" rx="11.86" ry="11.86"/><rect class="cls-3" x="119.33" y="67.64" width="34.61" height="144.56" rx="12.14" ry="12.14"/><rect class="cls-3" x="170.45" y="67.64" width="33.82" height="144.56" rx="11.86" ry="11.86"/><rect class="cls-3" x="220" y="67.64" width="34.61" height="144.56" rx="12.14" ry="12.14"/><rect class="cls-1" width="324.06" height="47.29"/><rect class="cls-4" y="39.32" width="324.06" height="13.47"/><circle class="cls-1" cx="40.85" cy="45.94" r="40.85"/><rect class="cls-2" x="203.49" y="56.63" width="16.52" height="191.2" rx="5.79" ry="5.79"/><circle class="cls-1" cx="283.21" cy="45.94" r="40.85"/><rect class="cls-5" x="43.39" y="20.88" width="236.04" height="54.28" rx="22.27" ry="22.27"/><path class="cls-6" d="M257.16,23.38a19.79,19.79,0,0,1,19.77,19.77v9.74a19.79,19.79,0,0,1-19.77,19.77H65.66A19.79,19.79,0,0,1,45.89,52.88V43.14A19.79,19.79,0,0,1,65.66,23.38h191.5m0-5H65.66A24.84,24.84,0,0,0,40.89,43.14v9.74A24.84,24.84,0,0,0,65.66,77.65h191.5a24.84,24.84,0,0,0,24.77-24.77V43.14a24.84,24.84,0,0,0-24.77-24.77Z"/><circle class="cls-7" cx="266.57" cy="56.38" r="21.13"/><path class="cls-7" d="M283.9,68.47s8.15-16.26,22.7-18a1.77,1.77,0,0,0,1.59-1.85c-.07-1.67,0-37.69,0-37.69s0-.72-.93-.69-25.36,15.6-25.36,15.6a1,1,0,0,0-.17,1.5c.77.9,3.26,3.85-.23,7-1.83,1.64-14.93.92-14.93.92Z"/><circle class="cls-8" cx="266.57" cy="56.38" r="14.76"/><circle class="cls-7" cx="266.57" cy="56.38" r="7.83"/><path class="cls-7" d="M245.44,56.38V76a1.48,1.48,0,0,0,1.44,1.55c1.47.05,19.69,0,19.69,0Z"/><circle class="cls-7" cx="55.37" cy="56.38" r="21.13"/><path class="cls-7" d="M38,68.47s-8.15-16.26-22.7-18a1.77,1.77,0,0,1-1.59-1.85c.07-1.67,0-37.69,0-37.69s0-.72.93-.69S40,25.87,40,25.87a1,1,0,0,1,.17,1.5c-.77.9-3.26,3.85.23,7,1.83,1.64,14.93.92,14.93.92Z"/><circle class="cls-8" cx="55.37" cy="56.38" r="14.76"/><circle class="cls-7" cx="55.37" cy="56.38" r="7.83"/><path class="cls-7" d="M76.5,56.38V76a1.48,1.48,0,0,1-1.44,1.55c-1.47.05-19.69,0-19.69,0Z"/><path class="cls-5" d="M161.67,231.2a70.43,70.43,0,1,1,70.43-70.43A70.51,70.51,0,0,1,161.67,231.2Z"/><path class="cls-6" d="M161.67,92.83a67.93,67.93,0,1,1-67.93,67.93,68,68,0,0,1,67.93-67.93m0-5a72.93,72.93,0,1,0,72.93,72.93,72.93,72.93,0,0,0-72.93-72.93Z"/><circle class="cls-9" cx="161.67" cy="160.77" r="64.35"/></g></g></svg>