<svg xmlns="http://www.w3.org/2000/svg" viewBox="0 0 1938.03 1167.4"><defs><style>.cls-1{fill:#fff;}.cls-2{fill:#4f4c48;}.cls-3{fill:#d2d1cd;}.cls-4{fill:#dcd7cd;}.cls-5{fill:#e8e3e2;}.cls-10,.cls-6{fill:#efeae6;}.cls-7{fill:#ffdb84;}.cls-8{fill:#fcb514;}.cls-9{fill:#ffcf4a;}.cls-10{stroke:#ffdb84;stroke-miterlimit:10;stroke-width:5px;}</style></defs><title>Asset 13</title><g id="Layer_2" data-name="Layer 2"><g id="Layer_1-2" data-name="Layer 1"><path class="cls-1" d="M1938,1061.72a105.67,105.67,0,0,1-105.65,105.68H1262.53a156.13,156.13,0,0,1-4.09-312.2A227.19,227.19,0,0,1,1680,856a156.26,156.26,0,0,1,162.43,100.57A105.64,105.64,0,0,1,1938,1061.72Z"/><path class="cls-1" d="M831.63,1059.82A105.67,105.67,0,0,1,726,1165.5H156.13A156.13,156.13,0,0,1,152,853.3a227.19,227.19,0,0,1,421.55.79A156.26,156.26,0,0,1,736,954.65,105.64,105.64,0,0,1,831.63,1059.82Z"/><path class="cls-1" d="M617.29,1059.54a105.67,105.67,0,0,0,105.65,105.68h569.85a156.13,156.13,0,0,0,4.09-312.2,227.19,227.19,0,0,0-421.55.79A156.26,156.26,0,0,0,712.91,954.37,105.64,105.64,0,0,0,617.29,1059.54Z"/><rect class="cls-2" x="391.76" y="325.66" width="1137.25" height="612.66"/><rect class="cls-3" x="317.47" y="374.83" width="131.42" height="519.26"/><rect class="cls-4" x="350.95" y="374.83" width="64.46" height="519.26"/><rect class="cls-5" x="326.65" y="388.69" width="15.17" height="486.5" rx="4.75" ry="4.75"/><rect class="cls-6" x="361.77" y="388.69" width="15.17" height="486.5" rx="4.75" ry="4.75"/><rect class="cls-6" x="388.53" y="388.69" width="15.17" height="486.5" rx="4.75" ry="4.75"/><rect class="cls-5" x="424.58" y="388.69" width="15.17" height="486.5" rx="4.75" ry="4.75"/><polygon class="cls-7" points="317.47 894.08 304.09 902.08 462.28 902.08 448.89 894.08 317.47 894.08"/><rect class="cls-8" x="304.09" y="902.08" width="158.19" height="14.06"/><rect class="cls-9" x="298.06" y="916.14" width="170.25" height="18"/><rect class="cls-9" x="286.01" y="346.29" width="194.33" height="28.53"/><circle class="cls-9" cx="310.51" cy="374.02" r="24.49"/><circle class="cls-8" cx="310.51" cy="374.02" r="17.32"/><circle class="cls-9" cx="455.85" cy="374.02" r="24.49"/><circle class="cls-9" cx="310.51" cy="374.02" r="9.21"/><circle class="cls-8" cx="455.85" cy="374.02" r="17.32"/><circle class="cls-9" cx="455.85" cy="374.02" r="9.21"/><rect class="cls-3" x="1512.68" y="374.83" width="131.42" height="519.26"/><rect class="cls-4" x="1546.16" y="374.83" width="64.46" height="519.26"/><rect class="cls-5" x="1521.86" y="388.69" width="15.17" height="486.5" rx="4.75" ry="4.75"/><rect class="cls-6" x="1556.98" y="388.69" width="15.17" height="486.5" rx="4.75" ry="4.75"/><rect class="cls-6" x="1583.74" y="388.69" width="15.17" height="486.5" rx="4.75" ry="4.75"/><rect class="cls-5" x="1619.79" y="388.69" width="15.17" height="486.5" rx="4.75" ry="4.75"/><polygon class="cls-7" points="1512.68 894.08 1499.3 902.08 1657.49 902.08 1644.11 894.08 1512.68 894.08"/><rect class="cls-8" x="1499.3" y="902.08" width="158.19" height="14.06"/><rect class="cls-9" x="1493.27" y="916.14" width="170.25" height="18"/><rect class="cls-9" x="1481.23" y="346.29" width="194.33" height="28.53"/><circle class="cls-9" cx="1505.72" cy="374.02" r="24.49"/><circle class="cls-8" cx="1505.72" cy="374.02" r="17.32"/><circle class="cls-9" cx="1651.07" cy="374.02" r="24.49"/><circle class="cls-9" cx="1505.72" cy="374.02" r="9.21"/><circle class="cls-8" cx="1651.07" cy="374.02" r="17.32"/><circle class="cls-9" cx="1651.07" cy="374.02" r="9.21"/><rect class="cls-4" x="266.65" y="304.06" width="1422.72" height="42.23"/><rect class="cls-9" x="266.65" y="285.07" width="1422.72" height="12.42"/><rect class="cls-7" x="260.4" y="297.48" width="1435.23" height="6.58"/><rect class="cls-4" x="266.65" y="940.72" width="1422.72" height="42.23"/><rect class="cls-7" x="260.4" y="934.14" width="1435.23" height="6.58"/><rect class="cls-4" x="247.5" y="989.53" width="1461.03" height="42.23"/><rect class="cls-7" x="241.08" y="982.95" width="1473.87" height="6.58"/><rect class="cls-4" x="228.94" y="1038.34" width="1498.15" height="42.23"/><rect class="cls-7" x="222.36" y="1031.76" width="1511.32" height="6.58"/><polygon class="cls-4" points="262.87 242.18 980.78 57.65 1693.3 242.18 262.87 242.18"/><path class="cls-7" d="M980.78,60.23l692.89,179.45h-1391L980.78,60.23m0-5.16L243.11,244.68H1712.92L980.79,55.07Z"/><polygon class="cls-6" points="265.65 288.78 983.56 104.24 1696.07 288.78 265.65 288.78"/><path class="cls-7" d="M983.55,106.82l692.89,179.45h-1391L983.55,106.82m0-5.16L245.88,291.28H1715.7L983.56,101.66Z"/><rect class="cls-7" x="260.4" y="278.49" width="1435.23" height="6.58"/><rect class="cls-7" x="243.11" y="236.71" width="1469.82" height="6.58"/><polygon class="cls-4" points="249.01 243.28 266.65 278.49 1689.38 278.49 1706.45 243.28 249.01 243.28"/><polygon class="cls-10" points="214.54 205.85 243.11 236.71 274.13 236.71 980.79 55.07 1682.13 236.71 1712.92 236.71 1745.03 205.11 980.79 2.59 214.54 205.85"/><rect class="cls-1" x="865.02" y="261.57" width="207.54" height="58.59" rx="25.75" ry="25.75"/><path class="cls-7" d="M1046.81,264.07a23.28,23.28,0,0,1,23.25,23.25v7.09a23.28,23.28,0,0,1-23.25,23.25h-156a23.28,23.28,0,0,1-23.25-23.25v-7.09a23.28,23.28,0,0,1,23.25-23.25h156m0-5h-156a28.34,28.34,0,0,0-28.25,28.25v7.09a28.34,28.34,0,0,0,28.25,28.25h156a28.34,28.34,0,0,0,28.25-28.25v-7.09a28.34,28.34,0,0,0-28.25-28.25Z"/><path class="cls-2" d="M889,97.32l.22,122.81H818.51v-46l23.15,8.54v16.58q.16,1,.89,1h20l.89-.51q-.49-8.8-.49-12.77l.32-76.09L852.41,97.32"/><path class="cls-2" d="M960.89,80.45h26.58V174h.41q17.89-9,18.21-10V92.29l-8.18-10.91v-.93h34.48l.37,121.29h0s0,0,0,0h0l-26.67-.15v-9.47h-.49q-15.79,8.55-19.51,9.47h-25v-9.05h-.49q-17.4,9.05-18.62,9.05H917V92.29L908.8,81.38v-.93h34.56q-.48,59.81-.48,90.26V174h.48q17.73-8.63,17.73-9.47"/><path class="cls-2" d="M1057.17,98.67l72.49.05v30.37h-.89q-18.62-10.4-20.48-10.4h-23.63c-.59.11-.89.42-.89.93v57.52q0,7.28-.49,22.33l.89.42h24.61q.89,0,20.4-10.4h.49v30.37h-72.28l-.21-121.19Z"/></g></g></svg>